<svg id="Capa_1" enable-background="new 0 0 512 512" height="512" viewBox="0 0 512 512" width="512" xmlns="http://www.w3.org/2000/svg" xmlns:xlink="http://www.w3.org/1999/xlink"><linearGradient id="SVGID_1_" gradientUnits="userSpaceOnUse" x1="256" x2="256" y1="512" y2="0"><stop offset="0" stop-color="#fd5900"/><stop offset="1" stop-color="#ffde00"/></linearGradient><linearGradient id="SVGID_2_" gradientUnits="userSpaceOnUse" x1="256" x2="256" y1="398.28" y2="113.72"><stop offset="0" stop-color="#ffe59a"/><stop offset="1" stop-color="#ffffd5"/></linearGradient><g><g><g><path d="m498.879 265.74-9.559-9.74 9.575-9.718c17.476-17.52 17.476-45.996-.015-63.516-17.007-16.992-46.758-17.08-63.896.088l-9.267 9.542-21.299-21.299 8.306-8.291c17.476-17.52 17.476-45.996-.015-63.53-17.52-17.461-45.996-17.476-63.516.015l-8.291 8.291-21.299-21.299 9.215-9.346c17.562-17.562 17.588-46.22 0-63.838-17.52-17.461-45.996-17.476-63.516.015l-9.302 9.566-9.303-9.58c-17.52-17.461-45.996-17.476-63.516.015-17.526 17.525-17.653 46.185.088 63.895l9.127 9.273-21.299 21.299-8.291-8.306c-17.52-17.461-45.981-17.476-63.53.015-17.476 17.52-17.476 45.996.015 63.516l8.291 8.291-21.299 21.299-9.34-9.652c-16.978-16.992-46.802-16.992-63.838 0-17.476 17.52-17.476 45.996.015 63.516l9.56 9.74-9.575 9.718c-17.476 17.52-17.476 45.996.015 63.516 17.007 17.007 46.772 17.065 63.896-.088l9.267-9.542 21.299 21.299-8.306 8.291c-17.476 17.52-17.476 45.996.015 63.53 17.52 17.461 45.996 17.476 63.516-.015l8.291-8.291 21.299 21.299-9.215 9.346c-17.562 17.562-17.588 46.22 0 63.838 17.52 17.461 45.996 17.476 63.516-.015l9.302-9.567 9.303 9.57c17.535 17.476 45.983 17.488 63.516-.015 17.526-17.526 17.653-46.186-.088-63.896l-9.127-9.262 21.299-21.299 8.291 8.306c17.52 17.461 45.981 17.476 63.53-.015 17.476-17.52 17.476-45.996-.015-63.516l-8.291-8.291 21.299-21.299 9.339 9.652c16.992 16.978 46.802 17.007 63.838 0 17.476-17.52 17.476-45.996 0-63.516-.015.001-.015.001-.015.001z" fill="url(#SVGID_1_)"/></g></g><g><g><path d="m245.395 224.184c2.813 2.813 6.621 4.395 10.605 4.395s7.793-1.582 10.605-4.395l42.422-42.437c5.859-5.859 5.859-15.352 0-21.211l-42.422-42.422c-5.859-5.859-15.352-5.859-21.211 0l-42.422 42.422c-5.859 5.859-5.859 15.352 0 21.211zm-16.817 31.816c0-3.984-1.582-7.793-4.395-10.605l-42.437-42.422c-5.859-5.859-15.352-5.859-21.211 0l-42.422 42.422c-5.859 5.859-5.859 15.352 0 21.211l42.422 42.422c2.93 2.93 6.768 4.395 10.605 4.395s7.676-1.465 10.605-4.395l42.437-42.422c2.814-2.813 4.396-6.622 4.396-10.606zm38.027 31.816c-5.625-5.625-15.586-5.625-21.211 0l-42.422 42.437c-5.859 5.859-5.859 15.352 0 21.211l42.422 42.422c2.93 2.93 6.768 4.395 10.605 4.395s7.676-1.465 10.605-4.395l42.422-42.422c5.859-5.859 5.859-15.352 0-21.211zm127.281-42.421-42.422-42.422c-5.859-5.859-15.352-5.859-21.211 0l-42.437 42.422c-2.813 2.813-4.395 6.621-4.395 10.605s1.582 7.793 4.395 10.605l42.437 42.422c2.93 2.93 6.768 4.395 10.605 4.395s7.676-1.465 10.605-4.395l42.422-42.422c5.86-5.859 5.86-15.351.001-21.21z" fill="url(#SVGID_2_)"/></g></g></g></svg>